<svg width="21" height="20" viewBox="0 0 21 20" fill="none" xmlns="http://www.w3.org/2000/svg">
<path fill-rule="evenodd" clip-rule="evenodd" d="M4.35593 1.61739C5.6902 0.725854 7.25888 0.25 8.8636 0.25H8.86365C11.0154 0.250137 13.0791 1.105 14.6006 2.62655C16.1222 4.14811 16.9771 6.21174 16.9772 8.36355V8.36359C16.9772 9.96831 16.5013 11.537 15.6098 12.8713C15.4533 13.1054 15.2853 13.3305 15.1065 13.5459L20.0303 18.4697C20.3232 18.7626 20.3232 19.2374 20.0303 19.5303C19.7374 19.8232 19.2626 19.8232 18.9697 19.5303L14.0459 14.6065C13.4235 15.1232 12.724 15.5467 11.9685 15.8596C10.486 16.4737 8.8546 16.6344 7.28071 16.3213C5.70683 16.0082 4.26113 15.2355 3.12642 14.1008C1.99171 12.9661 1.21897 11.5204 0.905904 9.94648C0.592839 8.37259 0.753515 6.74122 1.36761 5.25866C1.98171 3.77609 3.02165 2.50892 4.35593 1.61739ZM8.86355 1.75C7.55552 1.75001 6.27687 2.13789 5.18928 2.86459C4.10168 3.5913 3.254 4.6242 2.75343 5.83268C2.25287 7.04116 2.1219 8.37093 2.37708 9.65384C2.63227 10.9368 3.26215 12.1152 4.18708 13.0401C5.11201 13.965 6.29044 14.5949 7.57335 14.8501C8.85626 15.1053 10.186 14.9743 11.3945 14.4738C12.603 13.9732 13.6359 13.1255 14.3626 12.0379C15.0893 10.9503 15.4772 9.67167 15.4772 8.36364M8.8636 1.75C10.6176 1.75012 12.2997 2.44695 13.54 3.68721C14.7802 4.92748 15.4771 6.6096 15.4772 8.36359" fill="#C4C4CC"/>
</svg>
